<svg width="20" height="18" viewBox="0 0 20 18" fill="none" xmlns="http://www.w3.org/2000/svg">
<path d="M13.1548 4.67113C13.2944 4.90714 13.2959 5.20003 13.1588 5.43747L6.44129 17.0728C6.30561 17.3078 6.05487 17.4525 5.78352 17.4525H0.760661C0.175975 17.4525 -0.189452 16.8196 0.102891 16.3132L9.30196 0.37977C9.59256 -0.123562 10.3177 -0.127323 10.6135 0.37297L13.1548 4.67113Z" fill="#6F9B7E"/>
<path d="M19.8933 16.3064C20.1927 16.8127 19.8277 17.4525 19.2395 17.4525H14.1816C13.913 17.4525 13.6645 17.3107 13.5278 17.0796L10.6909 12.2815C10.3915 11.7752 10.7565 11.1354 11.3447 11.1354H16.4026C16.6711 11.1354 16.9197 11.2772 17.0564 11.5083L19.8933 16.3064Z" fill="#6F9B7E"/>
</svg>
